<mxfile host="app.diagrams.net" agent="Mozilla/5.0 (Windows NT 10.0; Win64; x64) AppleWebKit/537.36 (KHTML, like Gecko) Chrome/128.0.0.0 Safari/537.36" version="24.7.12">
  <diagram name="Side-1" id="l9XD8PmaStAuw35h2c7y">
    <mxGraphModel dx="955" dy="517" grid="1" gridSize="10" guides="1" tooltips="1" connect="1" arrows="1" fold="1" page="1" pageScale="1" pageWidth="1169" pageHeight="1654" math="0" shadow="0">
      <root>
        <mxCell id="0" />
        <mxCell id="1" parent="0" />
        <mxCell id="x3vUJltWHpwn7sFPezEq-3" value="" style="shape=umlActor;verticalLabelPosition=bottom;verticalAlign=top;html=1;outlineConnect=0;" vertex="1" parent="1">
          <mxGeometry x="775" y="200" width="30" height="60" as="geometry" />
        </mxCell>
        <mxCell id="x3vUJltWHpwn7sFPezEq-4" value="" style="endArrow=none;html=1;rounded=0;" edge="1" parent="1">
          <mxGeometry width="50" height="50" relative="1" as="geometry">
            <mxPoint x="345" y="260" as="sourcePoint" />
            <mxPoint x="825" y="260" as="targetPoint" />
          </mxGeometry>
        </mxCell>
        <mxCell id="x3vUJltWHpwn7sFPezEq-5" value="Ground" style="text;html=1;align=center;verticalAlign=middle;whiteSpace=wrap;rounded=0;" vertex="1" parent="1">
          <mxGeometry x="555" y="260" width="60" height="30" as="geometry" />
        </mxCell>
        <mxCell id="x3vUJltWHpwn7sFPezEq-6" value="" style="fontColor=#0066CC;verticalAlign=top;verticalLabelPosition=bottom;labelPosition=center;align=center;html=1;outlineConnect=0;fillColor=#CCCCCC;strokeColor=#6881B3;gradientColor=none;gradientDirection=north;strokeWidth=2;shape=mxgraph.networks.radio_tower;" vertex="1" parent="1">
          <mxGeometry x="345" y="160" width="55" height="100" as="geometry" />
        </mxCell>
        <mxCell id="x3vUJltWHpwn7sFPezEq-7" value="" style="verticalLabelPosition=bottom;shadow=0;dashed=0;align=center;html=1;verticalAlign=top;shape=mxgraph.electrical.radio.aerial_-_antenna_1;" vertex="1" parent="1">
          <mxGeometry x="745" y="200" width="20" height="30" as="geometry" />
        </mxCell>
        <mxCell id="x3vUJltWHpwn7sFPezEq-8" value="" style="endArrow=open;dashed=1;html=1;rounded=0;startArrow=open;startFill=0;endFill=0;strokeWidth=2;" edge="1" parent="1">
          <mxGeometry width="50" height="50" relative="1" as="geometry">
            <mxPoint x="415" y="180" as="sourcePoint" />
            <mxPoint x="735" y="210" as="targetPoint" />
          </mxGeometry>
        </mxCell>
        <mxCell id="x3vUJltWHpwn7sFPezEq-9" value="Stationary base station" style="text;html=1;align=center;verticalAlign=middle;whiteSpace=wrap;rounded=0;" vertex="1" parent="1">
          <mxGeometry x="300" y="120" width="145" height="30" as="geometry" />
        </mxCell>
        <mxCell id="x3vUJltWHpwn7sFPezEq-10" value="RF link (Line of sight)" style="text;html=1;align=center;verticalAlign=middle;whiteSpace=wrap;rounded=0;" vertex="1" parent="1">
          <mxGeometry x="515" y="160" width="140" height="30" as="geometry" />
        </mxCell>
        <mxCell id="x3vUJltWHpwn7sFPezEq-11" value="Portable station" style="text;html=1;align=center;verticalAlign=middle;whiteSpace=wrap;rounded=0;" vertex="1" parent="1">
          <mxGeometry x="735" y="120" width="90" height="30" as="geometry" />
        </mxCell>
        <mxCell id="x3vUJltWHpwn7sFPezEq-26" style="edgeStyle=orthogonalEdgeStyle;rounded=0;orthogonalLoop=1;jettySize=auto;html=1;exitX=1;exitY=0.5;exitDx=0;exitDy=0;entryX=0;entryY=0.5;entryDx=0;entryDy=0;" edge="1" parent="1" source="x3vUJltWHpwn7sFPezEq-16" target="x3vUJltWHpwn7sFPezEq-24">
          <mxGeometry relative="1" as="geometry" />
        </mxCell>
        <mxCell id="x3vUJltWHpwn7sFPezEq-27" style="edgeStyle=orthogonalEdgeStyle;rounded=0;orthogonalLoop=1;jettySize=auto;html=1;exitX=1;exitY=0.5;exitDx=0;exitDy=0;entryX=0;entryY=0.5;entryDx=0;entryDy=0;" edge="1" parent="1" source="x3vUJltWHpwn7sFPezEq-16" target="x3vUJltWHpwn7sFPezEq-18">
          <mxGeometry relative="1" as="geometry" />
        </mxCell>
        <mxCell id="x3vUJltWHpwn7sFPezEq-16" value="Reciever" style="rounded=0;whiteSpace=wrap;html=1;" vertex="1" parent="1">
          <mxGeometry x="425" y="435" width="120" height="60" as="geometry" />
        </mxCell>
        <mxCell id="x3vUJltWHpwn7sFPezEq-18" value="Antenna Position Controller" style="rounded=0;whiteSpace=wrap;html=1;" vertex="1" parent="1">
          <mxGeometry x="590" y="380" width="120" height="60" as="geometry" />
        </mxCell>
        <mxCell id="x3vUJltWHpwn7sFPezEq-24" value="Display Communication&amp;nbsp;" style="rounded=0;whiteSpace=wrap;html=1;" vertex="1" parent="1">
          <mxGeometry x="590" y="480" width="120" height="60" as="geometry" />
        </mxCell>
        <mxCell id="x3vUJltWHpwn7sFPezEq-25" style="edgeStyle=orthogonalEdgeStyle;rounded=0;orthogonalLoop=1;jettySize=auto;html=1;exitX=0.5;exitY=1;exitDx=0;exitDy=0;" edge="1" parent="1" source="x3vUJltWHpwn7sFPezEq-16" target="x3vUJltWHpwn7sFPezEq-16">
          <mxGeometry relative="1" as="geometry" />
        </mxCell>
        <mxCell id="x3vUJltWHpwn7sFPezEq-28" value="Simple overlook of the receiving part of both antennas" style="text;html=1;align=center;verticalAlign=middle;whiteSpace=wrap;rounded=0;" vertex="1" parent="1">
          <mxGeometry x="395" y="320" width="370" height="30" as="geometry" />
        </mxCell>
      </root>
    </mxGraphModel>
  </diagram>
</mxfile>
